<?xml version="1.0" standalone="no"?>
<!DOCTYPE svg PUBLIC "-//W3C//DTD SVG 20010904//EN"
 "http://www.w3.org/TR/2001/REC-SVG-20010904/DTD/svg10.dtd">
<svg version="1.0" xmlns="http://www.w3.org/2000/svg"
 width="272.000000pt" height="185.000000pt" viewBox="0 0 272.000000 185.000000"
 preserveAspectRatio="xMidYMid meet">

<g transform="translate(0.000000,185.000000) scale(0.100000,-0.100000)"
fill="#000000" stroke="none">
<path d="M1183 1426 c-154 -35 -308 -157 -377 -297 -115 -235 -70 -490 118
-667 175 -164 423 -199 642 -91 244 120 366 424 276 685 -78 224 -270 368
-506 379 -59 3 -113 0 -153 -9z m220 -308 l92 92 75 -75 75 -75 -93 -92 -92
-93 92 -92 93 -93 -75 -75 -74 -74 -94 91 -94 91 -94 -94 -94 -94 -70 70 c-38
38 -70 74 -70 80 0 6 38 48 85 95 47 47 85 89 85 95 0 6 -36 45 -79 87 -44 42
-82 82 -86 88 -5 7 22 41 66 86 l74 74 92 -92 93 -93 93 93z"/>
</g>
</svg>
