<?xml version="1.0" standalone="no"?>
<!DOCTYPE svg PUBLIC "-//W3C//DTD SVG 20010904//EN"
 "http://www.w3.org/TR/2001/REC-SVG-20010904/DTD/svg10.dtd">
<svg version="1.0" xmlns="http://www.w3.org/2000/svg"
 width="225.000000pt" height="225.000000pt" viewBox="0 0 225.000000 225.000000"
 preserveAspectRatio="xMidYMid meet">

<g transform="translate(0.000000,225.000000) scale(0.100000,-0.100000)"
fill="#000000" stroke="none">
<path d="M113 1919 c-101 -30 -141 -165 -73 -251 45 -57 49 -58 521 -58 412 0
435 1 474 20 58 28 89 85 83 152 -6 56 -30 94 -79 123 -32 19 -54 20 -464 22
-246 1 -444 -2 -462 -8z"/>
<path d="M95 1268 c-119 -65 -120 -223 -3 -284 23 -12 189 -14 1036 -14 l1009
0 33 23 c55 37 74 71 74 132 0 61 -19 95 -74 132 l-33 23 -1011 0 c-718 -1
-1017 -4 -1031 -12z"/>
<path d="M1214 620 c-110 -55 -112 -211 -4 -274 34 -20 49 -21 480 -21 440 0
445 0 480 22 96 59 99 198 7 267 -28 21 -39 21 -475 24 -432 2 -448 2 -488
-18z"/>
</g>
</svg>
